<svg version="1.1" id="Layer_1" xmlns="http://www.w3.org/2000/svg" xmlns:xlink="http://www.w3.org/1999/xlink" x="0px" y="0px" viewBox="0 0 496.156 496.156" style="enable-background:new 0 0 496.156 496.156;" xml:space="preserve">
<path style="fill:#50C46E;" d="M0,248.08C0,111.06,111.069,0.002,248.074,0.002c137.013,0,248.082,111.059,248.082,248.078  c0,137.005-111.069,248.074-248.082,248.074C111.069,496.154,0,385.085,0,248.08z"/>
<g>
  <rect x="125.768" y="232.258" style="fill:#FFFFFF;" width="244.62" height="159.85"/>
  <path style="fill:#FFFFFF;" d="M341.796,332.218c-7.712,0-13.964-6.252-13.964-13.964V182.269   c0-43.977-35.778-79.755-79.754-79.755s-79.754,35.778-79.754,79.755v135.984c0,7.712-6.252,13.964-13.964,13.964   s-13.964-6.252-13.964-13.964V182.269c0-59.376,48.306-107.683,107.682-107.683S355.76,122.893,355.76,182.269v135.984   C355.76,325.966,349.508,332.218,341.796,332.218z"/>
</g>
</svg>