<?xml version="1.0" encoding="UTF-8" standalone="no"?>
<svg
   xmlns:dc="http://purl.org/dc/elements/1.1/"
   xmlns:cc="http://creativecommons.org/ns#"
   xmlns:rdf="http://www.w3.org/1999/02/22-rdf-syntax-ns#"
   xmlns:svg="http://www.w3.org/2000/svg"
   xmlns="http://www.w3.org/2000/svg"
   viewBox="0 0 1052.3625 744.09998"
   height="744.09998"
   width="1052.3625"
   xml:space="preserve"
   version="1.1"
   id="svg2"><metadata
     id="metadata8"><rdf:RDF><cc:Work
         rdf:about=""><dc:format>image/svg+xml</dc:format><dc:type
           rdf:resource="http://purl.org/dc/dcmitype/StillImage" /></cc:Work></rdf:RDF></metadata><defs
     id="defs6"><clipPath
       id="clipPath16"
       clipPathUnits="userSpaceOnUse"><path
         id="path18"
         d="m 0,595.28 841.89,0 L 841.89,0 0,0 0,595.28 Z" /></clipPath><clipPath
       id="clipPath88"
       clipPathUnits="userSpaceOnUse"><path
         id="path90"
         d="m 414.134,500.288 c -2.957,0.044 -5.923,0.077 -8.908,0.077 l 0,0 c -118.719,0 -216.393,-35.416 -228.418,-80.844 l 0,0 c -0.823,-3.108 -1.251,-6.263 -1.251,-9.457 l 0,0 c 0,-1.365 0.09,-2.722 0.243,-4.071 l 0,0 c 1.399,-12.401 9.158,-24.152 22.033,-34.763 l 0,0 c 36.935,-30.432 115.914,-51.463 207.395,-51.463 l 0,0 c 2.983,0 5.95,0.034 8.906,0.079 l 0,0 c 2.957,-0.045 5.923,-0.079 8.909,-0.079 l 0,0 c 91.476,0 170.453,21.031 207.384,51.463 l 0,0 c 12.875,10.611 20.631,22.362 22.032,34.763 l 0,0 c 0.153,1.349 0.244,2.706 0.244,4.071 l 0,0 c 0,3.194 -0.428,6.349 -1.251,9.457 l 0,0 c -12.025,45.428 -109.695,80.844 -228.409,80.844 l 0,0 c -2.986,0 -5.952,-0.033 -8.909,-0.077 m 8.909,-72.476 0.002,0 c -0.09,0 -0.174,-0.003 -0.262,-0.003 l 0,0 c 0.088,0 0.172,0.003 0.26,0.003 M 197.833,371.23 c 31.385,33.048 31.387,33.048 0,0" /></clipPath><linearGradient
       id="linearGradient96"
       spreadMethod="pad"
       gradientTransform="matrix(477.14648,0,0,-477.14648,175.55664,410.06641)"
       gradientUnits="userSpaceOnUse"
       y2="0"
       x2="1"
       y1="0"
       x1="0"><stop
         id="stop98"
         offset="0"
         style="stop-opacity:1;stop-color:#cde1f4" /><stop
         id="stop100"
         offset="0.14309408"
         style="stop-opacity:1;stop-color:#cde1f4" /><stop
         id="stop102"
         offset="0.567416"
         style="stop-opacity:1;stop-color:#349fd8" /><stop
         id="stop104"
         offset="0.865168"
         style="stop-opacity:1;stop-color:#007abf" /><stop
         id="stop106"
         offset="0.994382"
         style="stop-opacity:1;stop-color:#00639b" /><stop
         id="stop108"
         offset="1"
         style="stop-opacity:1;stop-color:#00639b" /></linearGradient><clipPath
       id="clipPath116"
       clipPathUnits="userSpaceOnUse"><path
         id="path118"
         d="m 0,595.28 841.89,0 L 841.89,0 0,0 0,595.28 Z" /></clipPath><linearGradient
       id="linearGradient140"
       spreadMethod="pad"
       gradientTransform="matrix(444.56738,0,0,-444.56738,208.13574,319.96289)"
       gradientUnits="userSpaceOnUse"
       y2="0"
       x2="1"
       y1="0"
       x1="0"><stop
         id="stop142"
         offset="0"
         style="stop-opacity:1;stop-color:#dedbd8" /><stop
         id="stop144"
         offset="0"
         style="stop-opacity:1;stop-color:#dedbd8" /><stop
         id="stop146"
         offset="0"
         style="stop-opacity:1;stop-color:#dedbd8" /><stop
         id="stop148"
         offset="0.04439189"
         style="stop-opacity:1;stop-color:#dedbd8" /><stop
         id="stop150"
         offset="0.264045"
         style="stop-opacity:1;stop-color:#8f8b91" /><stop
         id="stop152"
         offset="0.522472"
         style="stop-opacity:1;stop-color:#f4f4f5" /><stop
         id="stop154"
         offset="0.58197592"
         style="stop-opacity:1;stop-color:#f4f4f5" /><stop
         id="stop156"
         offset="0.876404"
         style="stop-opacity:1;stop-color:#858185" /><stop
         id="stop158"
         offset="1"
         style="stop-opacity:1;stop-color:#d2d4d5" /><stop
         id="stop160"
         offset="1"
         style="stop-opacity:1;stop-color:#d2d4d5" /></linearGradient><clipPath
       id="clipPath168"
       clipPathUnits="userSpaceOnUse"><path
         id="path170"
         d="m 0,595.28 841.89,0 L 841.89,0 0,0 0,595.28 Z" /></clipPath><linearGradient
       id="linearGradient212"
       spreadMethod="pad"
       gradientTransform="matrix(477.10547,0,0,-477.10547,175.57715,360.78418)"
       gradientUnits="userSpaceOnUse"
       y2="0"
       x2="1"
       y1="0"
       x1="0"><stop
         id="stop214"
         offset="0"
         style="stop-opacity:1;stop-color:#91d6e4" /><stop
         id="stop216"
         offset="0.417276"
         style="stop-opacity:1;stop-color:#91d6e4" /><stop
         id="stop218"
         offset="0.573581"
         style="stop-opacity:1;stop-color:#3eb554" /><stop
         id="stop220"
         offset="0.58600901"
         style="stop-opacity:1;stop-color:#3eb554" /><stop
         id="stop222"
         offset="1"
         style="stop-opacity:1;stop-color:#3eb554" /></linearGradient></defs><g
     transform="matrix(1.25,0,0,-1.25,0,744.1)"
     id="g10"><g
       id="g12"><g
         clip-path="url(#clipPath16)"
         id="g14"><g
           transform="translate(486.0342,290.6582)"
           id="g20"><path
             id="path22"
             style="fill:#3c4694;fill-opacity:1;fill-rule:nonzero;stroke:none"
             d="m 0,0 c -19.794,-4.773 -39.622,-9.625 -59.417,-14.532 -34.782,-8.66 -69.444,-17.444 -103.609,-26.045 -34.167,-8.599 -68.004,-16.854 -100.744,-24.841 -37.292,-9.094 -73.155,-17.836 -106.79,-26.045 l 1.358,-0.32 c 33.444,8.097 69.084,16.72 106.121,25.677 32.799,7.928 66.693,16.125 101.337,24.241 34.66,8.112 69.913,16.308 105.036,24.625 23.909,5.687 47.734,11.442 71.317,17.24 L 0,0 Z" /></g><g
           transform="translate(554.8437,96.6113)"
           id="g24"><path
             id="path26"
             style="fill:#3c4694;fill-opacity:1;fill-rule:nonzero;stroke:none"
             d="m 0,0 10.773,-2.516 c 11.536,2.797 23.068,5.61 34.599,8.434 17.458,4.269 34.889,8.562 52.229,12.869 l 2.291,5.234 C 80.385,19.396 60.823,14.721 41.286,10.005 27.5,6.679 13.72,3.354 0,0" /></g><g
           transform="translate(562.123,140.623)"
           id="g28"><path
             id="path30"
             style="fill:#3c4694;fill-opacity:1;fill-rule:nonzero;stroke:none"
             d="m 0,0 c -17.497,-4.224 -35,-8.443 -52.437,-12.649 -8.712,-2.1 -17.405,-4.211 -26.028,-6.349 -4.318,-1.07 -8.623,-2.141 -12.926,-3.204 -1.485,-0.379 -2.971,-0.756 -4.461,-1.136 l 10.376,-2.415 c 3.704,0.879 7.405,1.761 11.12,2.644 8.699,2.069 17.393,4.173 26.076,6.301 17.39,4.248 34.849,8.517 52.3,12.785 34.898,8.551 69.626,17.264 103.874,25.79 1.133,0.279 2.251,0.562 3.381,0.844 l 1.857,4.246 c -2.79,-0.66 -5.56,-1.315 -8.359,-1.974 C 70.205,16.688 35.016,8.43 0,0" /></g><g
           transform="translate(545.1191,157.6211)"
           id="g32"><path
             id="path34"
             style="fill:#3c4694;fill-opacity:1;fill-rule:nonzero;stroke:none"
             d="m 0,0 c -17.503,-4.215 -35.006,-8.436 -52.442,-12.636 -17.432,-4.212 -34.785,-8.405 -51.826,-12.756 -6.157,-1.561 -12.269,-3.139 -18.361,-4.716 l 9.2,-2.149 c 4.345,0.987 8.695,1.986 13.033,2.996 17.377,4.009 34.708,8.236 52.099,12.479 17.383,4.261 34.833,8.527 52.282,12.799 34.901,8.554 69.616,17.276 103.869,25.793 10.363,2.594 20.66,5.165 30.903,7.734 l 1.635,3.732 C 128.593,30.494 116.735,27.7 104.779,24.88 70.211,16.682 35.023,8.434 0,0" /></g><g
           transform="translate(579.1318,123.6123)"
           id="g36"><path
             id="path38"
             style="fill:#3c4694;fill-opacity:1;fill-rule:nonzero;stroke:none"
             d="m 0,0 c -22.943,-5.566 -45.949,-11.045 -68.677,-16.64 l 10.741,-2.506 c 20.632,4.975 41.266,10.072 61.977,15.108 17.414,4.31 34.83,8.611 52.182,12.902 9.222,2.306 18.417,4.609 27.598,6.906 l 2.01,4.602 C 74.771,17.765 63.692,15.147 52.559,12.525 35.086,8.364 17.548,4.178 0,0" /></g><g
           transform="translate(528.0908,174.6553)"
           id="g40"><path
             id="path42"
             style="fill:#3c4694;fill-opacity:1;fill-rule:nonzero;stroke:none"
             d="m 0,0 c -17.503,-4.223 -35.007,-8.438 -52.437,-12.645 -8.716,-2.108 -17.423,-4.198 -26.046,-6.341 -4.319,-1.064 -8.629,-2.127 -12.934,-3.189 -4.278,-1.085 -8.553,-2.17 -12.816,-3.253 -15.082,-3.826 -29.95,-7.734 -44.669,-11.607 l 6.968,-1.627 c 13.769,3.075 27.645,6.189 41.529,9.411 4.337,1.005 8.684,2.017 13.035,3.027 4.332,1.035 8.668,2.077 13.016,3.112 8.701,2.066 17.371,4.193 26.063,6.312 17.386,4.254 34.842,8.522 52.298,12.795 34.896,8.549 69.618,17.275 103.869,25.787 19.684,4.926 39.147,9.798 58.367,14.607 l 1.457,3.32 C 147.007,34.833 126.011,29.886 104.775,24.882 70.209,16.686 35.015,8.431 0,0" /></g><g
           transform="translate(581.665,250.7393)"
           id="g44"><path
             id="path46"
             style="fill:#3c4694;fill-opacity:1;fill-rule:nonzero;stroke:none"
             d="m 0,0 c -34.707,-8.064 -69.732,-16.488 -104.721,-24.942 -34.967,-8.476 -69.619,-17.268 -103.578,-26.079 -17.002,-4.381 -33.868,-8.728 -50.533,-13.021 -8.365,-2.117 -16.68,-4.215 -24.935,-6.305 -8.287,-2.053 -16.516,-4.088 -24.671,-6.114 -8.391,-2.052 -16.704,-4.083 -24.936,-6.097 l 2.152,-0.502 c 7.82,1.889 15.71,3.794 23.669,5.71 8.227,1.958 16.518,3.935 24.871,5.918 8.382,1.958 16.834,3.926 25.335,5.909 17.059,3.895 34.33,7.842 51.732,11.818 34.868,7.9 70.124,16.091 105.068,24.594 34.922,8.522 69.813,17.081 103.928,25.725 34.153,8.621 67.758,17.104 100.281,25.308 13.704,3.44 27.164,6.816 40.442,10.142 l 0.808,1.845 C 130.777,30.586 116.427,27.21 101.813,23.773 68.79,16.062 34.672,8.098 0,0" /></g><g
           transform="translate(563.6152,204.2119)"
           id="g48"><path
             id="path50"
             style="fill:#3c4694;fill-opacity:1;fill-rule:nonzero;stroke:none"
             d="m 0,0 c -17.471,-4.163 -35.013,-8.346 -52.559,-12.527 -34.971,-8.467 -70.133,-16.755 -104.141,-25.508 -17.012,-4.375 -33.792,-8.814 -50.419,-13.152 -6.852,-1.786 -13.653,-3.563 -20.438,-5.334 l 4.333,-1.015 c 6.092,1.375 12.186,2.744 18.337,4.127 17.106,3.857 34.46,7.707 51.864,11.694 34.806,7.956 69.552,16.653 104.496,25.167 17.416,4.3 34.829,8.613 52.173,12.899 17.314,4.329 34.561,8.638 51.665,12.916 29.159,7.304 57.87,14.501 85.904,21.526 l 1.204,2.748 C 113.03,26.624 82.88,19.528 52.251,12.325 34.95,8.245 17.506,4.133 0,0" /></g><g
           transform="translate(598.8037,233.6055)"
           id="g52"><path
             id="path54"
             style="fill:#3c4694;fill-opacity:1;fill-rule:nonzero;stroke:none"
             d="m 0,0 c -17.312,-4.079 -34.752,-8.184 -52.27,-12.312 -17.459,-4.175 -34.994,-8.369 -52.52,-12.559 -8.754,-2.115 -17.499,-4.224 -26.242,-6.339 -8.744,-2.103 -17.475,-4.209 -26.148,-6.361 -4.337,-1.066 -8.678,-2.133 -13.007,-3.2 -4.312,-1.085 -8.621,-2.17 -12.917,-3.256 -8.609,-2.156 -17.143,-4.357 -25.642,-6.555 -16.969,-4.414 -33.798,-8.795 -50.429,-13.121 -8.317,-2.166 -16.572,-4.328 -24.832,-6.41 -4.123,-1.044 -8.23,-2.09 -12.319,-3.129 -3.354,-0.836 -6.689,-1.663 -10.021,-2.496 l 2.643,-0.616 c 2.823,0.668 5.642,1.338 8.473,2.011 4.166,0.963 8.35,1.931 12.548,2.905 8.381,1.959 16.892,3.868 25.438,5.802 17.094,3.861 34.397,7.773 51.848,11.713 8.707,1.986 17.446,3.979 26.163,6.026 4.36,1.027 8.733,2.047 13.101,3.071 4.353,1.046 8.717,2.084 13.076,3.13 8.744,2.081 17.455,4.212 26.172,6.345 8.719,2.13 17.448,4.264 26.178,6.392 17.423,4.3 34.847,8.599 52.208,12.878 17.304,4.332 34.542,8.647 51.647,12.928 34.186,8.583 67.829,17.031 100.386,25.205 4.356,1.088 8.642,2.158 12.96,3.237 l 1.011,2.315 C 112.253,26.362 107.019,25.129 101.708,23.875 68.721,16.134 34.636,8.128 0,0" /></g><g
           transform="translate(107.877,281.2695)"
           id="g56"><path
             id="path58"
             style="fill:#3c4694;fill-opacity:1;fill-rule:nonzero;stroke:none"
             d="m 0,0 38.645,9.389 -3.062,0 L -0.038,0.734 C -0.025,0.49 -0.012,0.244 0,0" /></g><g
           transform="translate(599.3047,86.2285)"
           id="g60"><path
             id="path62"
             style="fill:#3c4694;fill-opacity:1;fill-rule:nonzero;stroke:none"
             d="m 0,0 10.684,-2.49 c 2.421,0.585 4.857,1.155 7.28,1.744 8.255,1.987 16.484,3.999 24.704,6.015 l 2.507,5.723 C 34.718,8.479 24.254,5.956 13.813,3.4 9.196,2.279 4.608,1.138 0,0" /></g><g
           transform="translate(213.5737,286.5303)"
           id="g64"><path
             id="path66"
             style="fill:#3c4694;fill-opacity:1;fill-rule:nonzero;stroke:none"
             d="m 0,0 -104.602,-25.407 c 0.014,-0.243 0.029,-0.487 0.043,-0.731 L 0.817,-0.542 C 0.546,-0.36 0.269,-0.185 0,0" /></g><g
           transform="translate(241.5322,272.5869)"
           id="g68"><path
             id="path70"
             style="fill:#3c4694;fill-opacity:1;fill-rule:nonzero;stroke:none"
             d="m 0,0 c -45.686,-11.124 -89.913,-21.893 -131.315,-31.977 0.029,-0.462 0.064,-0.925 0.093,-1.388 42.191,10.222 87.329,21.158 133.97,32.457 C 1.824,-0.622 0.913,-0.309 0,0" /></g><g
           transform="translate(662.4883,290.6582)"
           id="g72"><path
             id="path74"
             style="fill:#3c4694;fill-opacity:1;fill-rule:nonzero;stroke:none"
             d="m 0,0 c -31.837,-7.391 -64.649,-15.008 -97.996,-22.747 -8.647,-2.044 -17.328,-4.098 -26.033,-6.154 -8.677,-2.091 -17.383,-4.184 -26.105,-6.282 -8.733,-2.084 -17.439,-4.223 -26.152,-6.359 -8.707,-2.144 -17.459,-4.253 -26.14,-6.438 -8.679,-2.173 -17.373,-4.347 -26.051,-6.518 -8.649,-2.201 -17.289,-4.402 -25.906,-6.597 -17.246,-4.399 -34.42,-8.78 -51.458,-13.125 -34.01,-8.756 -67.698,-17.157 -100.404,-25.181 -17.756,-4.334 -35.173,-8.587 -52.198,-12.743 l 1.82,-0.427 c 16.706,4.033 33.786,8.162 51.187,12.365 32.834,7.894 66.875,15.939 101.682,23.899 17.366,4.011 34.882,8.055 52.463,12.119 8.784,2.029 17.589,4.064 26.401,6.102 8.781,2.073 17.572,4.145 26.364,6.213 8.798,2.06 17.525,4.194 26.279,6.291 8.756,2.103 17.487,4.209 26.159,6.345 8.694,2.133 17.367,4.261 26.015,6.383 8.615,2.145 17.208,4.289 25.761,6.418 34.115,8.661 67.686,17.179 100.171,25.424 C 7.192,-0.67 8.503,-0.341 9.834,0 L 0,0 Z" /></g><g
           transform="translate(572.8418,290.6582)"
           id="g76"><path
             id="path78"
             style="fill:#3c4694;fill-opacity:1;fill-rule:nonzero;stroke:none"
             d="m 0,0 c -8.372,-1.949 -16.768,-3.917 -25.167,-5.921 -34.595,-8.177 -69.576,-16.644 -104.382,-25.28 -17.422,-4.304 -34.715,-8.735 -51.979,-13.102 -17.257,-4.384 -34.445,-8.753 -51.495,-13.085 -34.078,-8.69 -67.816,-17.041 -100.573,-25.012 -27.374,-6.68 -53.971,-13.17 -79.501,-19.403 l 1.598,-0.375 c 25.281,6.11 51.593,12.47 78.665,19.015 32.785,7.945 66.775,16.042 101.517,24.066 17.354,4.025 34.858,8.082 52.42,12.153 17.554,4.091 35.222,8.147 52.752,12.335 35.105,8.342 70.036,16.859 104.264,25.392 8.578,2.121 17.085,4.256 25.546,6.401 C 7.402,-1.871 11.104,-0.94 14.829,0 L 0,0 Z" /></g><g
           transform="translate(401.416,290.6582)"
           id="g80"><path
             id="path82"
             style="fill:#3c4694;fill-opacity:1;fill-rule:nonzero;stroke:none"
             d="m 0,0 c -14.536,-3.624 -29.071,-7.249 -43.552,-10.861 -17.357,-4.28 -34.644,-8.546 -51.799,-12.774 -34.378,-8.386 -68.215,-16.637 -100.96,-24.625 -32.426,-7.911 -63.731,-15.546 -93.469,-22.801 0.024,-0.33 0.051,-0.659 0.074,-0.989 30.004,7.259 61.609,14.904 94.359,22.825 32.796,7.934 66.689,16.127 101.125,24.458 17.259,4.126 34.654,8.287 52.115,12.461 C -24.797,-8.214 -7.418,-4.104 9.955,0 L 0,0 Z" /></g></g></g><g
       id="g84"><g
         clip-path="url(#clipPath88)"
         id="g86"><g
           id="g92"><g
             id="g94"><path
               id="path110"
               style="fill:url(#linearGradient96);stroke:none"
               d="m 414.134,500.288 c -2.957,0.044 -5.923,0.077 -8.908,0.077 l 0,0 c -118.719,0 -216.393,-35.416 -228.418,-80.844 l 0,0 c -0.823,-3.108 -1.251,-6.263 -1.251,-9.457 l 0,0 c 0,-1.365 0.09,-2.722 0.243,-4.071 l 0,0 c 1.399,-12.401 9.158,-24.152 22.033,-34.763 l 0,0 c 36.935,-30.432 115.914,-51.463 207.395,-51.463 l 0,0 c 2.983,0 5.95,0.034 8.906,0.079 l 0,0 c 2.957,-0.045 5.923,-0.079 8.909,-0.079 l 0,0 c 91.476,0 170.453,21.031 207.384,51.463 l 0,0 c 12.875,10.611 20.631,22.362 22.032,34.763 l 0,0 c 0.153,1.349 0.244,2.706 0.244,4.071 l 0,0 c 0,3.194 -0.428,6.349 -1.251,9.457 l 0,0 c -12.025,45.428 -109.695,80.844 -228.409,80.844 l 0,0 c -2.986,0 -5.952,-0.033 -8.909,-0.077 m 8.909,-72.476 0.002,0 c -0.09,0 -0.174,-0.003 -0.262,-0.003 l 0,0 c 0.088,0 0.172,0.003 0.26,0.003 M 197.833,371.23 c 31.385,33.048 31.387,33.048 0,0" /></g></g></g></g><g
       id="g112"><g
         clip-path="url(#clipPath116)"
         id="g114"><g
           transform="translate(421.9521,413.4316)"
           id="g120"><path
             id="path122"
             style="fill:#ffffff;fill-opacity:1;fill-rule:nonzero;stroke:none"
             d="M 0,0 0.62,0.505 32.806,-2.438 51.463,1.198 32.851,4.883 0.646,2.026 0,2.552 62.9,12.812 85.049,26.463 48.809,24.278 -1.559,3.819 -2.179,4.325 19.34,15.946 21.969,25.354 5.866,19.623 -4.973,5.095 -6.261,5.095 6.275,35.813 -7.82,51.65 -21.914,35.813 -9.379,5.095 l -1.239,0 -10.668,14.567 -16.032,5.774 2.515,-9.416 21.366,-11.675 -0.644,-0.526 -50.37,20.459 -36.244,2.185 22.15,-13.651 62.905,-10.26 -0.62,-0.504 -32.188,2.941 -18.659,-3.632 18.614,-3.689 32.209,2.858 0.644,-0.526 -62.905,-10.26 -22.15,-13.653 36.244,2.186 50.368,20.459 0.619,-0.505 -21.518,-11.622 -2.629,-9.407 16.101,5.731 10.839,14.528 1.292,0 -12.539,-30.721 14.098,-15.836 14.093,15.836 -12.534,30.721 1.237,0 10.666,-14.567 16.033,-5.77 -2.515,9.414 -21.363,11.673 0.644,0.525 50.366,-20.459 36.242,-2.186 L 62.9,-10.26 0,0 Z" /></g><g
           transform="translate(200.4116,317.9805)"
           id="g124"><path
             id="path126"
             style="fill:#d2d4d5;fill-opacity:1;fill-rule:nonzero;stroke:none"
             d="m 0,0 c -0.074,-0.039 -0.149,-0.065 -0.222,-0.1 -3.302,15.512 -5.754,31.546 -7.435,47.941 -9.828,9.393 -15.751,19.58 -16.955,30.251 -0.153,-3.391 -0.243,-6.797 -0.243,-10.227 0,-23.112 3.51,-45.421 10.018,-66.434 0.073,0.024 0.148,0.043 0.221,0.069 4.008,-12.053 14.296,-23.33 29.521,-33.309 C 7.637,-21.791 2.543,-11.128 0,0" /></g></g></g><g
       id="g128"><g
         id="g130"><g
           id="g136"><g
             id="g138"><path
               id="path162"
               style="fill:url(#linearGradient140);stroke:none"
               d="M 630.427,361.311 C 593.496,330.87 514.519,309.841 423.043,309.841 l 0,0 c -2.776,0 -5.532,0.03 -8.283,0.073 l 0,0 0,0.008 c -0.208,-0.003 -0.418,0 -0.626,-0.004 l 0,0 c -0.208,0.004 -0.419,10e-4 -0.625,0.004 l 0,0 0,-0.008 c -2.753,-0.043 -5.508,-0.073 -8.283,-0.073 l 0,0 c -83.728,0 -156.957,17.621 -197.09,43.945 l 0,0 c 1.537,-16.934 4.478,-33.4 8.758,-49.212 l 0,0 c 0.073,0.026 0.148,0.049 0.222,0.08 l 0,0 c 3.153,-10.849 10.223,-21.142 20.501,-30.599 l 0,0 c 40.581,-18.494 100.611,-30.203 167.609,-30.203 l 0,0 c 2.985,0 5.952,0.033 8.908,0.08 l 0,0 c 2.956,-0.047 5.923,-0.08 8.909,-0.08 l 0,0 c 112.408,0 205.233,32.955 219.423,75.628 l 0,0 c 0.071,-0.026 0.147,-0.045 0.219,-0.069 l 0,0 c 6.507,21.013 10.018,43.322 10.018,66.434 l 0,0 c 0,3.431 -0.091,6.837 -0.244,10.228 l 0,0 c -1.401,-12.402 -9.157,-24.153 -22.032,-34.762" /></g></g></g></g><g
       id="g164"><g
         clip-path="url(#clipPath168)"
         id="g166"><g
           transform="translate(370.1904,278.2109)"
           id="g172"><path
             id="path174"
             style="fill:#3c4694;fill-opacity:1;fill-rule:nonzero;stroke:none"
             d="m 0,0 c 0,-3.83 -3.104,-6.934 -6.936,-6.934 -3.83,0 -6.934,3.104 -6.934,6.934 l 0,15.508 c 0,3.832 3.104,6.933 6.934,6.933 C -3.104,22.441 0,19.34 0,15.508 L 0,0 Z" /></g><g
           transform="translate(471.9365,286.0801)"
           id="g176"><path
             id="path178"
             style="fill:#3c4694;fill-opacity:1;fill-rule:nonzero;stroke:none"
             d="m 0,0 c 0,-1.39 -1.125,-2.515 -2.517,-2.515 l -26.425,0 c -1.391,0 -2.516,1.125 -2.516,2.515 0,1.39 1.125,2.518 2.516,2.518 l 26.425,0 C -1.125,2.518 0,1.39 0,0" /></g><g
           transform="translate(468.374,273.6455)"
           id="g180"><path
             id="path182"
             style="fill:#3c4694;fill-opacity:1;fill-rule:nonzero;stroke:none"
             d="m 0,0 c -0.595,-1.258 -2.095,-1.791 -3.351,-1.196 l -23.878,11.328 c -1.257,0.595 -1.792,2.095 -1.196,3.35 0.595,1.255 2.097,1.789 3.353,1.195 L -1.194,3.353 C 0.063,2.758 0.598,1.256 0,0" /></g><g
           transform="translate(466.6338,301.8633)"
           id="g184"><path
             id="path186"
             style="fill:#3c4694;fill-opacity:1;fill-rule:nonzero;stroke:none"
             d="m 0,0 c 0.729,-1.182 0.365,-2.731 -0.819,-3.461 l -22.485,-13.888 c -1.183,-0.729 -2.735,-0.362 -3.465,0.82 -0.729,1.182 -0.363,2.733 0.82,3.463 L -3.463,0.819 C -2.28,1.549 -0.729,1.182 0,0" /></g><g
           transform="translate(444.3838,265.626)"
           id="g188"><path
             id="path190"
             style="fill:#3c4694;fill-opacity:1;fill-rule:nonzero;stroke:none"
             d="m 0,0 c 1.087,-2.416 -0.394,-5.43 -3.375,-6.474 -17.051,-5.977 -35.639,-5.977 -52.688,0 -2.981,1.044 -4.461,4.058 -3.376,6.474 1.085,2.423 3.992,3.482 6.554,2.592 14.992,-5.258 31.338,-5.258 46.332,0 C -3.993,3.482 -1.087,2.423 0,0 0.002,0 0.002,0 0,0" /></g><g
           transform="translate(423.6699,337.7871)"
           id="g192"><path
             id="path194"
             style="fill:#ffffff;fill-opacity:1;fill-rule:nonzero;stroke:none"
             d="M 0,0 C -3.195,0 -6.373,0.033 -9.536,0.08 -12.699,0.033 -15.875,0 -19.07,0 -91.154,0 -155.667,11.841 -199.101,30.504 -159.021,8.258 -93.062,-6.267 -18.442,-6.267 c 2.984,0 5.951,0.032 8.906,0.079 2.955,-0.047 5.923,-0.079 8.911,-0.079 74.611,0 140.568,14.525 180.644,36.771 C 136.589,11.841 72.08,0 0,0" /></g><g
           transform="translate(404.5977,489.4023)"
           id="g196"><path
             id="path198"
             style="fill:#ffffff;fill-opacity:1;fill-rule:nonzero;stroke:none"
             d="M 0,0 C 3.196,0 6.373,-0.033 9.537,-0.08 12.7,-0.033 15.875,0 19.07,0 91.152,0 155.661,-11.844 199.091,-30.504 159.014,-8.259 93.059,6.267 18.443,6.267 15.459,6.267 12.492,6.234 9.537,6.187 6.581,6.234 3.614,6.267 0.626,6.267 -73.989,6.267 -139.951,-8.259 -180.028,-30.504 -136.596,-11.844 -72.084,0 0,0" /></g></g></g><g
       id="g200"><g
         id="g202"><g
           id="g208"><g
             id="g210"><path
               id="path224"
               style="fill:url(#linearGradient212);stroke:none"
               d="m 175.592,410.984 -0.015,0.959 c 0,-0.32 0.005,-0.639 0.015,-0.959 m 0.228,-15.125 c 1.4,-12.402 9.159,-24.154 22.033,-34.765 l 0,0 c 36.933,-30.439 115.912,-51.47 207.393,-51.47 l 0,0 c 2.776,0 5.531,0.034 8.282,0.073 l 0,0 0,0.013 c 0.206,-0.004 0.419,-0.004 0.626,-0.008 l 0,0 c 0.209,0.004 0.418,0.004 0.626,0.008 l 0,0 0,-0.013 c 2.75,-0.039 5.505,-0.073 8.28,-0.073 l 0,0 c 91.478,0 170.455,21.031 207.385,51.47 l 0,0 c 12.877,10.611 20.634,22.363 22.034,34.765 l 0,0 c 0.094,-2.114 0.155,-4.233 0.196,-6.359 l 0,0 0.008,0.026 0,21.081 -0.002,0 c -0.039,-0.918 -0.1,-1.829 -0.202,-2.735 l 0,0 c -1.4,-12.404 -9.157,-24.156 -22.032,-34.766 l 0,0 C 593.517,342.674 514.54,321.644 423.065,321.644 l 0,0 c -2.988,0 -5.951,0.029 -8.911,0.076 l 0,0 c -2.955,-0.047 -5.923,-0.076 -8.906,-0.076 l 0,0 c -91.479,0 -170.46,21.03 -207.395,51.462 l 0,0 c 6.81,7.167 6.808,7.167 0,0 l 0,0 c -12.874,10.61 -20.633,22.362 -22.033,34.766 l 0,0 c -0.118,1.033 -0.197,2.07 -0.228,3.112 l 0,0 0.228,-15.125 z" /></g></g></g></g></g></svg>