<?xml version="1.0" encoding="iso-8859-1"?>
<!-- Generator: Adobe Illustrator 16.0.0, SVG Export Plug-In . SVG Version: 6.00 Build 0)  -->
<!DOCTYPE svg PUBLIC "-//W3C//DTD SVG 1.1//EN" "http://www.w3.org/Graphics/SVG/1.1/DTD/svg11.dtd">
<svg version="1.1" id="Capa_1" xmlns="http://www.w3.org/2000/svg" xmlns:xlink="http://www.w3.org/1999/xlink" x="0px" y="0px"
	 width="744.191px" height="744.191px" viewBox="0 0 744.191 744.191" style="enable-background:new 0 0 744.191 744.191;"
	 xml:space="preserve">
<g>
	<g>
		<g>
			<path d="M372.762,744.191l-4.216-0.676c-178.111-42.031-302.45-199.174-302.45-382.168v-255.57l12.406-0.554
				C181.933,100.6,280.828,66.117,364.486,5.515L372.104,0l7.618,5.515c83.684,60.603,182.57,95.085,285.967,99.709l12.406,0.553
				v255.579c0,182.994-124.348,340.136-302.39,382.152L372.762,744.191z M92.069,130.478v230.87
				c0,170.084,115.015,316.259,280.019,356.309c165.021-40.067,280.036-186.232,280.036-356.309v-230.87
				c-100.869-6.753-197.244-40.639-280.02-98.505C289.347,89.83,192.98,123.725,92.069,130.478z"/>
			<path d="M372.528,644.934l-2.935-0.493c-130.348-30.744-221.425-145.828-221.425-279.855V177.678l8.268-0.373
				c76.177-3.419,148.996-28.803,210.577-73.416l5.082-3.679l5.082,3.679c61.615,44.621,134.425,70.004,210.568,73.416l8.268,0.373
				v186.907c0,134.019-91.077,249.103-221.477,279.872L372.528,644.934z M165.484,194.153v170.44
				c0,125.432,84.878,233.208,206.603,262.652c121.785-29.522,206.612-137.267,206.612-262.652v-170.44
				c-74.446-4.848-145.586-29.842-206.604-72.619C311.121,164.311,239.965,189.305,165.484,194.153z"/>
			<path d="M430.033,347.149V314.9c0-31.297-25.308-56.811-56.379-56.811h-3.117c-31.072,0-56.326,25.514-56.326,56.811v32.249
				h-20.596v141.81h156.943v-141.81H430.033z M335.977,314.891c0-19.176,15.514-34.786,34.561-34.786h3.117
				c19.091,0,34.543,15.609,34.543,34.786v32.25h-72.221V314.891L335.977,314.891z"/>
		</g>
	</g>
</g>
</svg>